<svg xmlns="http://www.w3.org/2000/svg" version="1.1" xmlns:xlink="http://www.w3.org/1999/xlink" xmlns:svgjs="http://svgjs.dev/svgjs" width="1500" height="484" viewBox="0 0 1500 484"><g transform="matrix(1,0,0,1,-0.9090553111731197,0.33838981228413445)"><svg viewBox="0 0 396 128" data-background-color="#444444" preserveAspectRatio="xMidYMid meet" height="484" width="1500" xmlns="http://www.w3.org/2000/svg" xmlns:xlink="http://www.w3.org/1999/xlink"><g id="tight-bounds" transform="matrix(1,0,0,1,0.24000939785031505,-0.08949152060407073)"><svg viewBox="0 0 395.52 128.17898304120817" height="128.17898304120817" width="395.52"><g><svg viewBox="0 0 395.52 128.17898304120817" height="128.17898304120817" width="395.52"><g><svg viewBox="0 0 698.5023131519449 226.36861891117474" height="128.17898304120817" width="395.52"><g><rect width="9.389783418993696" height="226.36861891117474" x="269.01194486647563" y="0" fill="#ffffff" opacity="1" stroke-width="0" stroke="transparent" fill-opacity="1" class="rect-qz-0" data-fill-palette-color="primary" rx="1%" id="qz-0" data-palette-color="#ffffff"></rect></g><g transform="matrix(1,0,0,1,302.982313151945,0.56310601719197)"><svg viewBox="0 0 395.52 225.2424068767908" height="225.2424068767908" width="395.52"><g id="textblocktransform"><svg viewBox="0 0 395.52 225.2424068767908" height="225.2424068767908" width="395.52" id="textblock"><g><svg viewBox="0 0 395.52 225.2424068767908" height="225.2424068767908" width="395.52"><g transform="matrix(1,0,0,1,0,0)"><svg width="395.52" viewBox="2.7499999999999982 -36 139.85 76.5" height="225.2424068767908" data-palette-color="#ffffff"><svg></svg><svg></svg><g class="wordmark-text-0" data-fill-palette-color="primary" id="text-0"><path d="M22.5-8.6h-4.55v-18.1h4.55zM7.3-8.6h-4.55v-18.1h4.55zM22.5-26.65v0h-4.55c0-1.733-0.473-3.067-1.42-4-0.953-0.933-2.263-1.4-3.93-1.4v0-3.95c1.967 0 3.693 0.39 5.18 1.17 1.48 0.787 2.637 1.887 3.47 3.3 0.833 1.42 1.25 3.047 1.25 4.88zM7.3-26.65h-4.55c0-1.833 0.417-3.46 1.25-4.88 0.833-1.413 2-2.513 3.5-3.3 1.5-0.78 3.217-1.17 5.15-1.17v0 3.95c-1.667 0-2.977 0.467-3.93 1.4-0.947 0.933-1.42 2.267-1.42 4zM17.95-8.65h4.55c0 1.867-0.417 3.5-1.25 4.9-0.833 1.4-1.99 2.5-3.47 3.3-1.487 0.8-3.213 1.2-5.18 1.2v0-3.95c1.667 0 2.977-0.477 3.93-1.43 0.947-0.947 1.42-2.287 1.42-4.02zM2.75-8.65v0h4.55c0 1.733 0.473 3.073 1.42 4.02 0.953 0.953 2.263 1.43 3.93 1.43v0 3.95c-1.933 0-3.65-0.4-5.15-1.2-1.5-0.8-2.667-1.9-3.5-3.3-0.833-1.4-1.25-3.033-1.25-4.9zM32.8 0h-4.55v-25.25h4.55zM45.85 0h-4.55v-17.2h4.55zM32.8-17.1h-2.05c0-1.7 0.327-3.227 0.98-4.58 0.647-1.347 1.537-2.403 2.67-3.17 1.133-0.767 2.4-1.15 3.8-1.15v0l-1.15 4.05c-1.2 0-2.21 0.45-3.03 1.35-0.813 0.9-1.22 2.067-1.22 3.5zM45.85-17.2h-4.55c0-1.4-0.4-2.543-1.2-3.43-0.8-0.88-1.817-1.32-3.05-1.32v0l1.15-4.05c1.467 0 2.777 0.383 3.93 1.15 1.147 0.767 2.053 1.807 2.72 3.12 0.667 1.32 1 2.83 1 4.53zM58.85 0h-4.55v-17.2h4.55zM45.85-17.1h-2.05c0-1.7 0.327-3.227 0.98-4.58 0.647-1.347 1.527-2.403 2.64-3.17 1.12-0.767 2.38-1.15 3.78-1.15v0l-1.15 4.05c-1.2 0-2.2 0.45-3 1.35-0.8 0.9-1.2 2.067-1.2 3.5zM58.85-17.2h-4.55c0-1.4-0.39-2.543-1.17-3.43-0.787-0.88-1.813-1.32-3.08-1.32v0l1.15-4.05c1.467 0 2.777 0.383 3.93 1.15 1.147 0.767 2.053 1.807 2.72 3.12 0.667 1.32 1 2.83 1 4.53zM81.45 0h-4.75l-8.95-13.95 4.35-1.45zM80.85-25.25l-12.95 16.25-3.5-2.35 10.95-13.9zM68.55 0h-4.55v-36h4.55zM102.7 0h-4.55v-17.2h4.55zM92.05 0.75v0l0.35-3.75c1.2 0 2.227-0.3 3.08-0.9 0.847-0.6 1.503-1.483 1.97-2.65 0.467-1.167 0.7-2.55 0.7-4.15v0l2.25-0.1c0 2.267-0.367 4.267-1.1 6-0.733 1.733-1.723 3.09-2.97 4.07-1.253 0.987-2.68 1.48-4.28 1.48zM92.4-3l-0.35 3.75c-1.5 0-2.867-0.35-4.1-1.05-1.233-0.7-2.217-1.66-2.95-2.88-0.733-1.213-1.1-2.57-1.1-4.07v0l4.3-0.15c0 1.267 0.427 2.317 1.28 3.15 0.847 0.833 1.82 1.25 2.92 1.25zM88.2-7.4l-4.3 0.15c0-1.567 0.393-2.943 1.18-4.13 0.78-1.18 1.837-2.12 3.17-2.82 1.333-0.7 2.85-1.05 4.55-1.05v0l0.25 3.5c-1.4 0-2.557 0.407-3.47 1.22-0.92 0.82-1.38 1.863-1.38 3.13zM100.5-11.75h-7.45l-0.25-3.5h7.7zM100.4-10.8l-2.25 0.1v-6.45h2.25zM102.7-17.1v0h-4.55c0-1.467-0.44-2.667-1.32-3.6-0.887-0.933-2.03-1.4-3.43-1.4v0-3.9c1.8 0 3.393 0.383 4.78 1.15 1.38 0.767 2.48 1.823 3.3 3.17 0.813 1.353 1.22 2.88 1.22 4.58zM88.7-17.7v0l-4.2-0.85c0.2-1.5 0.71-2.8 1.53-3.9 0.813-1.1 1.863-1.967 3.15-2.6 1.28-0.633 2.703-0.95 4.27-0.95v0 3.9c-1.233 0-2.29 0.357-3.17 1.07-0.887 0.72-1.413 1.83-1.58 3.33zM112.4 0h-4.55v-25.25h4.55zM112.4-16.9h-2.05c0-1.7 0.283-3.227 0.85-4.58 0.567-1.347 1.343-2.403 2.33-3.17 0.98-0.767 2.07-1.15 3.27-1.15v0l-0.4 4.25c-1.167 0-2.123 0.44-2.87 1.32-0.753 0.887-1.13 1.997-1.13 3.33zM120.95-24.2l-1.55 3.8c-0.4-0.333-0.873-0.61-1.42-0.83-0.553-0.213-1.08-0.32-1.58-0.32v0l0.4-4.25c0.767 0 1.517 0.14 2.25 0.42 0.733 0.287 1.367 0.68 1.9 1.18z" fill="#ffffff" fill-rule="nonzero" stroke="none" stroke-width="1" stroke-linecap="butt" stroke-linejoin="miter" stroke-miterlimit="10" stroke-dasharray="" stroke-dashoffset="0" font-family="none" font-weight="none" font-size="none" text-anchor="none" style="mix-blend-mode: normal" data-fill-palette-color="primary" opacity="1"></path><path transform="translate(0,39.75)" d="M11.05-31.3h-5.1v-3.95h5.1zM11.05-13.55h-5.1v-3.95h5.1zM20.9-22.9h-4.55v-3h4.55zM20.9-25.9v0h-4.55c0-1.733-0.473-3.067-1.42-4-0.953-0.933-2.263-1.4-3.93-1.4v0-3.95c1.967 0 3.693 0.39 5.18 1.17 1.48 0.787 2.637 1.887 3.47 3.3 0.833 1.42 1.25 3.047 1.25 4.88zM16.35-22.95h4.55c0 1.867-0.417 3.5-1.25 4.9-0.833 1.4-1.99 2.5-3.47 3.3-1.487 0.8-3.213 1.2-5.18 1.2v0-3.95c1.667 0 2.977-0.483 3.93-1.45 0.947-0.967 1.42-2.3 1.42-4zM7.55 0h-4.55v-35.25h4.55zM41.25-8.95h-4.55v-7.35h4.55zM27.2-8.95h-4.55v-7.35h4.55zM32.1-22.05h-0.3v-3.95h0.3zM32.1 0.75h-0.3v-3.95h0.3zM27.2-16.25h-4.55c0-1.867 0.41-3.533 1.23-5 0.813-1.467 1.913-2.627 3.3-3.48 1.38-0.847 2.953-1.27 4.72-1.27v0 3.95c-1.467 0-2.617 0.5-3.45 1.5-0.833 1-1.25 2.433-1.25 4.3zM41.25-16.25v0h-4.55c0-1.867-0.407-3.3-1.22-4.3-0.82-1-1.98-1.5-3.48-1.5v0-3.95c1.767 0 3.343 0.423 4.73 1.27 1.38 0.853 2.48 2.013 3.3 3.48 0.813 1.467 1.22 3.133 1.22 5zM22.65-9v0h4.55c0 1.833 0.417 3.257 1.25 4.27 0.833 1.02 1.983 1.53 3.45 1.53v0 3.95c-1.767 0-3.34-0.427-4.72-1.28-1.387-0.847-2.487-2.003-3.3-3.47-0.82-1.467-1.23-3.133-1.23-5zM36.7-9h4.55c0 1.867-0.407 3.533-1.22 5-0.82 1.467-1.92 2.623-3.3 3.47-1.387 0.853-2.963 1.28-4.73 1.28v0-3.95c1.5 0 2.66-0.51 3.48-1.53 0.813-1.013 1.22-2.437 1.22-4.27zM50.45 0h-4.55v-25.25h4.55zM50.45-16.9h-2.05c0-1.7 0.283-3.227 0.85-4.58 0.567-1.347 1.343-2.403 2.33-3.17 0.98-0.767 2.07-1.15 3.27-1.15v0l-0.4 4.25c-1.167 0-2.123 0.44-2.87 1.32-0.753 0.887-1.13 1.997-1.13 3.33zM59-24.2l-1.55 3.8c-0.4-0.333-0.877-0.61-1.43-0.83-0.547-0.213-1.07-0.32-1.57-0.32v0l0.4-4.25c0.767 0 1.517 0.14 2.25 0.42 0.733 0.287 1.367 0.68 1.9 1.18zM67.6 0h-4.55v-36h4.55zM79.15 0h-4.55v-25.25h4.55zM76.85-28.6v0c-0.833 0-1.533-0.283-2.1-0.85-0.567-0.567-0.85-1.267-0.85-2.1v0c0-0.833 0.283-1.543 0.85-2.13 0.567-0.58 1.267-0.87 2.1-0.87v0c0.833 0 1.54 0.29 2.12 0.87 0.587 0.587 0.88 1.297 0.88 2.13v0c0 0.833-0.293 1.533-0.88 2.1-0.58 0.567-1.287 0.85-2.12 0.85zM103.1 0h-4.75l-8.95-13.95 4.35-1.45zM102.5-25.25l-12.95 16.25-3.5-2.35 10.95-13.9zM90.2 0h-4.55v-36h4.55zM124.35 0h-4.55v-17.2h4.55zM113.7 0.75v0l0.35-3.75c1.2 0 2.227-0.3 3.08-0.9 0.847-0.6 1.503-1.483 1.97-2.65 0.467-1.167 0.7-2.55 0.7-4.15v0l2.25-0.1c0 2.267-0.367 4.267-1.1 6-0.733 1.733-1.727 3.09-2.98 4.07-1.247 0.987-2.67 1.48-4.27 1.48zM114.05-3l-0.35 3.75c-1.5 0-2.867-0.35-4.1-1.05-1.233-0.7-2.217-1.66-2.95-2.88-0.733-1.213-1.1-2.57-1.1-4.07v0l4.3-0.15c0 1.267 0.427 2.317 1.28 3.15 0.847 0.833 1.82 1.25 2.92 1.25zM109.85-7.4l-4.3 0.15c0-1.567 0.39-2.943 1.17-4.13 0.787-1.18 1.847-2.12 3.18-2.82 1.333-0.7 2.85-1.05 4.55-1.05v0l0.25 3.5c-1.4 0-2.56 0.407-3.48 1.22-0.913 0.82-1.37 1.863-1.37 3.13zM122.15-11.75h-7.45l-0.25-3.5h7.7zM122.05-10.8l-2.25 0.1v-6.45h2.25zM124.35-17.1v0h-4.55c0-1.467-0.443-2.667-1.33-3.6-0.88-0.933-2.02-1.4-3.42-1.4v0-3.9c1.8 0 3.393 0.383 4.78 1.15 1.38 0.767 2.48 1.823 3.3 3.17 0.813 1.353 1.22 2.88 1.22 4.58zM110.35-17.7v0l-4.2-0.85c0.2-1.5 0.707-2.8 1.52-3.9 0.82-1.1 1.873-1.967 3.16-2.6 1.28-0.633 2.703-0.95 4.27-0.95v0 3.9c-1.233 0-2.293 0.357-3.18 1.07-0.88 0.72-1.403 1.83-1.57 3.33zM134.05 0h-4.55v-25.25h4.55zM134.05-16.9h-2.05c0-1.7 0.283-3.227 0.85-4.58 0.567-1.347 1.343-2.403 2.33-3.17 0.98-0.767 2.07-1.15 3.27-1.15v0l-0.4 4.25c-1.167 0-2.123 0.44-2.87 1.32-0.753 0.887-1.13 1.997-1.13 3.33zM142.6-24.2l-1.55 3.8c-0.4-0.333-0.873-0.61-1.42-0.83-0.553-0.213-1.08-0.32-1.58-0.32v0l0.4-4.25c0.767 0 1.517 0.14 2.25 0.42 0.733 0.287 1.367 0.68 1.9 1.18z" fill="#ffffff" fill-rule="nonzero" stroke="none" stroke-width="1" stroke-linecap="butt" stroke-linejoin="miter" stroke-miterlimit="10" stroke-dasharray="" stroke-dashoffset="0" font-family="none" font-weight="none" font-size="none" text-anchor="none" style="mix-blend-mode: normal" data-fill-palette-color="primary" opacity="1"></path></g></svg></g></svg></g></svg></g></svg></g><g transform="matrix(1,0,0,1,0,51.92540972289899)"><svg viewBox="0 0 244.43135999999998 122.51779946537675" height="122.51779946537675" width="244.43135999999998"><g><svg xmlns="http://www.w3.org/2000/svg" xmlns:xlink="http://www.w3.org/1999/xlink" xml:space="preserve" style="shape-rendering:geometricPrecision;text-rendering:geometricPrecision;image-rendering:optimizeQuality;" viewBox="0.0000020000000000575113 0.0000027841116459863258 14.727499 7.381952827609914" x="0" y="0" fill-rule="evenodd" clip-rule="evenodd" width="244.43135999999998" height="122.51779946537675" class="icon-icon-0" data-fill-palette-color="accent" id="icon-0"><g fill="#00d1cd" data-fill-palette-color="accent"><path class="" d="M1.757 3.091c-0.313 0.444-0.296 1.331-0.417 1.95-0.153 0.784-0.711 1.203-1.34 1.534 0.188-0.771 0.348-1.542 0.412-2.313 0.078-0.953-0.06-0.891 0.767-1.575 1.159-0.961 3.04-1.741 5.848-2.29 2.456-0.406 5.049-0.453 7.701-0.351-0.89 1.809-3.733 1.961-7.203 1.581-1.811 0.02-3.495-0.488-5.768 1.464z m8.33 2.781c-3.895 2.038-7.803-2.284-9.165 0.688 2.104-1.831 5.079 3.183 9.165-0.688z m2.489-2.547c-4.49 2.72-9.502-0.792-10.907 1.859 3.412-1.235 7.765 2.753 10.907-1.859z m0.834-1.478c-3.944 1.761-10.043-1.402-11.565 2.239 3.106-1.808 8.446 1.438 11.565-2.239z" fill="#00d1cd" data-fill-palette-color="accent"></path></g></svg></g></svg></g></svg></g></svg></g><defs></defs></svg><rect width="395.52" height="128.17898304120817" fill="none" stroke="none" visibility="hidden"></rect></g></svg></g></svg>